/* XPM */
static char *result[] = {
/* columns rows colors chars-per-pixel */
"32 32 151 2 ",
"   c #3C3D3F",
".  c #3D3D40",
"X  c #3E3E40",
"o  c #3E3F41",
"O  c #3F3F41",
"+  c #3F4042",
"@  c #404042",
"#  c #414144",
"$  c #414244",
"%  c #424244",
"&  c #424245",
"*  c #424345",
"=  c #434345",
"-  c #444547",
";  c #454648",
":  c #464648",
">  c #464649",
",  c #464749",
"<  c #48484B",
"1  c #48494B",
"2  c #494A4C",
"3  c #4A4B4D",
"4  c #4B4B4E",
"5  c #4C4C4F",
"6  c #4D4D50",
"7  c #4D4E50",
"8  c #4E4E50",
"9  c #4E4E51",
"0  c #4E4F51",
"q  c #4F5053",
"w  c #505153",
"e  c #505154",
"r  c #515154",
"t  c #525355",
"y  c #545456",
"u  c #545558",
"i  c #555659",
"p  c #565659",
"a  c #565759",
"s  c #55575A",
"d  c #56565A",
"f  c #56575A",
"g  c #57575A",
"h  c #57575B",
"j  c #57585B",
"k  c #58585B",
"l  c #58595C",
"z  c #595A5C",
"x  c #595A5D",
"c  c #5A5A5C",
"v  c #5A5A5D",
"b  c #5A5A5E",
"n  c #5A5B5E",
"m  c #5B5C5E",
"M  c #5B5C5F",
"N  c #5C5C5F",
"B  c #5C5D5F",
"V  c #5B5C60",
"C  c #5C5C60",
"Z  c #5C5D60",
"A  c #5D5D61",
"S  c #5E5E61",
"D  c #5E5E62",
"F  c #5E5F62",
"G  c #5F5F62",
"H  c #5E5F64",
"J  c #5F6062",
"K  c #5F6063",
"L  c #5F6064",
"P  c #5F6065",
"I  c #606063",
"U  c #606164",
"Y  c #616164",
"T  c #606065",
"R  c #616165",
"E  c #616265",
"W  c #626365",
"Q  c #636365",
"!  c #626366",
"~  c #636366",
"^  c #636467",
"/  c #646567",
"(  c #646568",
")  c #656568",
"_  c #646569",
"`  c #656668",
"'  c #66676A",
"]  c #67676A",
"[  c #66686A",
"{  c #67686A",
"}  c #6A6B6D",
"|  c #696A6E",
" . c #6B6C6E",
".. c #6D6E70",
"X. c #707174",
"o. c #727275",
"O. c #767779",
"+. c #7C7D7F",
"@. c #7E7E80",
"#. c #808183",
"$. c #848485",
"%. c #858688",
"&. c #87888A",
"*. c #88898B",
"=. c #89898C",
"-. c #898A8C",
";. c #8A8A8C",
":. c #8A8B8D",
">. c #909192",
",. c #A2A2A3",
"<. c #A4A5A6",
"1. c #A8A8A9",
"2. c #AAAAAB",
"3. c #ABABAC",
"4. c #ABACAC",
"5. c #ACACAD",
"6. c #ADADAE",
"7. c #B0B0B1",
"8. c #B3B3B4",
"9. c #B8B8B9",
"0. c #B8BABB",
"q. c #BDBDBE",
"w. c #BDBEBF",
"e. c #BDBFBF",
"r. c #BEBEBF",
"t. c #C2C2C3",
"y. c #C8C9CA",
"u. c #D1D2D2",
"i. c #D1D2D3",
"p. c #D3D4D5",
"a. c #DBDBDC",
"s. c gainsboro",
"d. c #DDDDDD",
"f. c #DDDDDE",
"g. c gray87",
"h. c gray88",
"j. c #E2E2E2",
"k. c #E7E8E9",
"l. c gray91",
"z. c #E9EAEA",
"x. c #EAEAEA",
"c. c gray93",
"v. c gray95",
"b. c #F8F8F8",
"n. c #F8F9F9",
"m. c gray98",
"M. c #FBFBFC",
"N. c #FDFEFE",
"B. c #FEFEFE",
"V. c white",
"C. c None",
/* pixels */
"C.C.C.C.C.C.C.C.C.C.C.C.C.C.C.C.C.C.C.C.C.C.C.C.C.C.C.C.C.C.C.C.",
"C.C.C.C.C.C.C.C.C.C.C.] m t 8 3 2 5 w k F C.C.C.C.C.C.C.C.C.C.C.",
"C.C.C.C.C.C.C.C.! r : + @ - 2 6 9 4 , # O % 6 m C.C.C.C.C.C.C.C.",
"C.C.C.C.C.C.N 1 X & 7 u h x z K | j n g i e ; . = a X.C.C.C.C.C.",
"C.C.C.C.F >   < j M / @.<.t.8.Z T >.y.3.*.} M x 0 o % z C.C.C.C.",
"C.C.C.B + , b Z O.7.j.m.V.V.h.R P 6.V.V.B.c.t.&.U V q : ` C.C.C.",
"C.C.C.v $ n ..9.v.V.V.V.V.V.f.Y P 4.V.V.V.V.V.M.i.%.D K W C.C.C.",
"C.C.C.v * u 0.V.V.V.V.V.V.V.f.Y P 4.V.V.V.V.V.V.V.l.) U Q C.C.C.",
"C.C.C.v * i e.V.V.V.V.V.V.V.f.Y P 4.V.V.V.V.V.V.V.x.] I Q C.C.C.",
"C.C.C.v * i w.V.V.V.V.V.V.V.f.Y P 4.V.V.V.V.V.V.V.z.[ U Q C.C.C.",
"C.C.C.v * s w.V.V.V.V.V.V.V.f.Y P 4.V.V.V.V.V.V.V.z.[ U Q C.C.C.",
"C.C.C.v * d r.V.V.V.V.V.V.V.f.Y P 4.V.V.V.V.V.V.V.z.[ U Q C.C.C.",
"C.C.C.v * d r.V.V.V.V.V.V.V.f.Y P 4.V.V.V.V.V.V.V.z.[ U Q C.C.C.",
"C.C.C.v * d r.V.V.V.V.V.V.V.f.Y P 4.V.V.V.V.V.V.V.z.[ U Q C.C.C.",
"C.C.C.v * d r.V.V.V.V.V.V.V.g.Y P 5.V.V.V.V.V.V.V.z.[ U Q C.C.C.",
"C.C.C.v * d r.V.V.V.V.V.V.m.u.D H ,.b.B.V.V.V.V.V.z.[ U Q C.C.C.",
"C.C.C.v * d r.V.V.V.V.V.V.a.1.i A $.p.n.V.V.V.V.V.z.[ U Q C.C.C.",
"C.C.C.v * d r.V.V.V.V.V.V.V.d.I L 3.V.V.V.V.V.V.V.z.[ U Q C.C.C.",
"C.C.C.v * d r.V.V.V.V.V.V.V.f.Y P 4.V.V.V.V.V.V.V.z.[ U Q C.C.C.",
"C.C.C.v * d r.V.V.V.V.V.V.V.f.Y P 4.V.V.V.V.V.V.V.z.[ U Q C.C.C.",
"C.C.C.v * d r.V.V.V.V.V.V.V.f.Y P 4.V.V.V.V.V.V.V.z.[ U Q C.C.C.",
"C.C.C.v * i r.V.V.V.V.V.V.V.f.Y P 4.V.V.V.V.V.V.V.z.[ U Q C.C.C.",
"C.C.C.v * f r.V.V.V.V.V.V.V.f.Y P 4.V.V.V.V.V.V.V.z.[ U Q C.C.C.",
"C.C.C.v * f r.V.V.V.V.V.V.V.f.Y P 4.V.V.V.V.V.V.V.z.[ U Q C.C.C.",
"C.C.C.v * f r.V.V.V.V.V.V.V.f.Y P 4.V.V.V.V.V.V.V.z.[ U Q C.C.C.",
"C.C.C.v * f r.V.V.V.V.V.V.V.f.Y P 4.V.V.V.V.V.V.V.z.[ U Q C.C.C.",
"C.C.C.v * f r.V.V.V.V.V.V.V.f.Y P 4.V.V.V.V.V.V.V.z.[ U Q C.C.C.",
"C.C.C.v * p q.V.N.N.N.N.N.V.s.U P 2.V.N.N.N.N.N.V.k.' U Q C.C.C.",
"C.C.C.v * l o.:.=.=.=.=.=.;.+.C _  .:.=.=.=.=.=.-.#.M E W C.C.C.",
"C.C.C.c $ F U K K K K K K K K ( ' U K K K K K K K K ^ F ~ C.C.C.",
"C.C.C.J y S J J J J J J J J J G G J J J J J J J J J G J { C.C.C.",
"C.C.C.C.C.C.C.C.C.C.C.C.C.C.C.C.C.C.C.C.C.C.C.C.C.C.C.C.C.C.C.C."
};
