/* XPM */
static char *result[] = {
/* columns rows colors chars-per-pixel */
"32 32 129 2 ",
"   c #313133",
".  c #313234",
"X  c #323335",
"o  c #333335",
"O  c #333436",
"+  c #343537",
"@  c #353638",
"#  c #363739",
"$  c #373739",
"%  c #37383A",
"&  c #38383A",
"*  c #38393B",
"=  c #39393B",
"-  c #3A3A3C",
";  c #3A3B3D",
":  c #3B3B3D",
">  c #3B3C3E",
",  c #3C3C3E",
"<  c #3E3E40",
"1  c #3E3F41",
"2  c #3F3F41",
"3  c #3F4042",
"4  c #404042",
"5  c #404143",
"6  c #424243",
"7  c #414244",
"8  c #434345",
"9  c #434446",
"0  c #454547",
"q  c #464648",
"w  c #464649",
"e  c #47484A",
"r  c #48494B",
"t  c #49494B",
"y  c #494A4B",
"u  c #494A4C",
"i  c #4A4A4C",
"p  c #4A4A4D",
"a  c #4B4C4E",
"s  c #4C4D4F",
"d  c #4D4D4F",
"f  c #4E4E50",
"g  c #4F5052",
"h  c #505052",
"j  c #505152",
"k  c #505153",
"l  c #515153",
"z  c #515254",
"x  c #525255",
"c  c #525355",
"v  c #535355",
"b  c #545457",
"n  c #555557",
"m  c #555558",
"M  c #555658",
"N  c #555659",
"B  c #565658",
"V  c #565659",
"C  c #565759",
"Z  c #575759",
"A  c #58595B",
"S  c #59595C",
"D  c #5B5B5D",
"F  c #5B5C5E",
"G  c #5B5C5F",
"H  c #5C5D5F",
"J  c #5E5E61",
"K  c #5E5F61",
"L  c #616164",
"P  c #616265",
"I  c #666668",
"U  c #65666A",
"Y  c #67686B",
"T  c #68686B",
"R  c #69696B",
"E  c #6A6B6E",
"W  c #6C6D6E",
"Q  c #6C6D6F",
"!  c #6D6D6F",
"~  c #6D6E70",
"^  c #6D6E71",
"/  c #6E6E70",
"(  c #6E6E71",
")  c #6E6F71",
"_  c #6F6F71",
"`  c #6E6F72",
"'  c #6F7073",
"]  c #717274",
"[  c #737376",
"{  c #797A7C",
"}  c #7F8082",
"|  c #8C8C8E",
" . c #909092",
".. c #929294",
"X. c #939395",
"o. c #9D9D9E",
"O. c #A9A9AA",
"+. c #B0B0B2",
"@. c #B3B3B4",
"#. c #B6B6B7",
"$. c gray74",
"%. c #BDBDBE",
"&. c #BEBFC0",
"*. c #BFBFC0",
"=. c #BFC0C1",
"-. c #C1C1C2",
";. c #C1C2C3",
":. c #C2C2C3",
">. c #C2C2C4",
",. c #C2C3C4",
"<. c #C3C3C5",
"1. c #C3C4C5",
"2. c #C7C7C8",
"3. c #DDDDDD",
"4. c #E3E3E4",
"5. c #E5E5E6",
"6. c #ECECEC",
"7. c #EEEEEF",
"8. c #EEEFEF",
"9. c #EFEFEF",
"0. c #EFEFF0",
"q. c #EFF0F0",
"w. c gray94",
"e. c #F0F0F1",
"r. c #F1F2F2",
"t. c #F3F3F4",
"y. c #FBFCFC",
"u. c white",
"i. c None",
/* pixels */
"i.i.i.i.i.i.i.i.i.i.i.i.i.i.i.i.i.i.i.i.i.i.i.i.i.i.i.i.i.i.i.i.",
"i.i.i.i.i.i.i.i.i.i.i.J z r 9 4 2 7 w f m i.i.i.i.i.i.i.i.i.i.i.",
"i.i.i.i.i.i.i.i.S e > @ # - 1 5 5 3 , $ + % 8 x i.i.i.i.i.i.i.i.",
"i.i.i.i.i.i.c 1 o X 9 A i.i.i.i.i.i.i.i.i.a @ . = d T i.i.i.i.i.",
"i.i.i.i.M , . X @ - < i.i.i.i.i.i.i.i.i.i.q : $ X   & g i.i.i.i.",
"i.i.i.v + + * k ..+.d i.i.i.i.i.i.i.i.i.i.2 X.O.R : % ; H i.i.i.",
"i.i.i.j O : / 3.u.r.Z i.i.i.i.i.i.i.i.i.i.4 *.u.t.o.8 i D i.i.i.",
"i.i.i.k o 0 =.u.u.7.V i.i.i.i.i.i.i.i.i.i.4 $.u.u.9.I y F i.i.i.",
"i.i.i.k X u 1.u.u.7.V i.i.i.i.i.i.i.i.i.i.4 %.u.u.0.~ y F i.i.i.",
"i.i.i.k X u 1.u.u.7.V i.i.i.i.i.i.i.i.i.i.4 %.u.u.9.! y F i.i.i.",
"i.i.i.k X u 1.u.u.7.V i.i.i.i.i.i.i.i.i.i.4 $.u.u.8.Q y F i.i.i.",
"i.i.i.k X u <.u.u.7.V i.i.i.i.i.i.i.i.i.i.4 %.u.u.9.! y F i.i.i.",
"i.i.i.k X u ,.u.u.7.V i.i.i.i.i.i.i.i.i.i.4 $.u.u.0.~ y F i.i.i.",
"i.i.i.k X u ,.u.u.7.V i.i.i.i.i.i.i.i.i.i.4 $.u.u.e._ y F i.i.i.",
"i.i.i.k X u ,.u.u.0.C i.i.i.i.i.i.i.i.i.i.4 %.u.u.0.~ y F i.i.i.",
"i.i.i.k X u >.u.u.5.l i.i.i.i.i.i.i.i.i.i.: @.u.u.0.~ y F i.i.i.",
"i.i.i.k X u >.u.y.&.7 i.i.i.i.i.i.i.i.i.i.   .0.u.0.~ y F i.i.i.",
"i.i.i.k X u >.u.u.7.M i.i.i.i.i.i.i.i.i.i.< $.u.u.q./ y F i.i.i.",
"i.i.i.k X u >.u.u.7.V i.i.i.i.i.i.i.i.i.i.4 %.u.u.0.~ y F i.i.i.",
"i.i.i.k X u >.u.u.7.V i.i.i.i.i.i.i.i.i.i.4 $.u.u.0.~ y F i.i.i.",
"i.i.i.k X u ,.u.u.7.V i.i.i.i.i.i.i.i.i.i.4 %.u.u.0.~ y F i.i.i.",
"i.i.i.k X u :.u.u.7.V i.i.i.i.i.i.i.i.i.i.4 %.u.u.0.~ y F i.i.i.",
"i.i.i.k X u ;.u.u.7.V i.i.i.i.i.i.i.i.i.i.4 %.u.u.q.) y F i.i.i.",
"i.i.i.k X u :.u.u.7.V i.i.i.i.i.i.i.i.i.i.4 %.u.u.q.) y F i.i.i.",
"i.i.i.k X u ;.u.u.7.V i.i.i.i.i.i.i.i.i.i.4 %.u.u.0.( y F i.i.i.",
"i.i.i.k X u :.u.u.7.V i.i.i.i.i.i.i.i.i.i.4 %.u.u.q.( y F i.i.i.",
"i.i.i.k X u ;.u.u.e.M i.i.i.i.i.i.i.i.i.i.2 %.u.u.w.) y F i.i.i.",
"i.i.i.k X u -.e.2.| 9 i.i.i.i.i.i.i.i.i.i.6 W #.4.6._ y F i.i.i.",
"i.i.i.k X p { ] Y N i.i.i.i.i.i.i.i.i.i.i.i.v U E } L i F i.i.i.",
"i.i.i.h + t G ^ [ i.i.i.i.i.i.i.i.i.i.i.i.i.i.` ' P c s D i.i.i.",
"i.i.i.B u b m M M V V V C C C C C C C C C V V M M M n M K i.i.i.",
"i.i.i.i.i.i.i.i.i.i.i.i.i.i.i.i.i.i.i.i.i.i.i.i.i.i.i.i.i.i.i.i."
};
