/* XPM */
static char *_b3fcb5fc6d54d2adcf7e4361b42ac32YIB8gOFqGBEiY5DL[] = {
/* columns rows colors chars-per-pixel */
"32 32 66 1 ",
"  c #1D1209",
". c #22160B",
"X c #26180C",
"o c #2D1D0E",
"O c #311F0F",
"+ c #32200F",
"@ c #342210",
"# c #3B2613",
"$ c #3E2814",
"% c #3D2B19",
"& c #353534",
"* c #3B3632",
"= c #3B3937",
"- c #3A3939",
"; c #442C15",
": c #482E17",
"> c #452E19",
", c #482F19",
"< c #47301B",
"1 c #493019",
"2 c #4B3119",
"3 c #49311A",
"4 c #4A301A",
"5 c #4B311B",
"6 c #4B321A",
"7 c #4C331B",
"8 c #49321D",
"9 c #423325",
"0 c #4A3727",
"q c #4C3725",
"w c #4D3A27",
"e c #493728",
"r c #4B3928",
"t c #4C3928",
"y c #4E3A28",
"u c #4F3B29",
"i c #503925",
"p c #503A27",
"a c #523B26",
"s c #523C27",
"d c #543D27",
"f c #503A28",
"g c #533C28",
"h c #513C2A",
"j c #533D2A",
"k c #563E28",
"l c #563F28",
"z c #553F2B",
"x c #573F2A",
"c c #513D2C",
"v c #57402A",
"b c #56402B",
"n c #56412D",
"m c #58412B",
"M c #5A422C",
"N c #564230",
"B c #584331",
"V c #594736",
"C c #4A4745",
"Z c #4B4A49",
"A c #514B46",
"S c #515151",
"D c #646261",
"F c #666767",
"G c #6B6764",
"H c #6E6C6A",
/* pixels */
"MMbhuwbmxMMMMMzzjgMMMMMMMMMMMx;@",
"MMhhwwlbllllMxgcclzMxlxxMMMMmd#@",
"hh81>;11,;2151;$;;81118;11221;@O",
"uu1;$$;,;;;,,,##;;,,::;;::,:1:@O",
"rr;;@o@@OOOO$$$$>>OOO#@@#@#;,:OO",
"rr;;@oo@OOOO#$$$:;oo@O+OO@##,:@O",
"lh1;@+$;;;$;wi$#;;oo;;;;;;qi,;Oo",
"nz,:@o;:,;;>gl;$;#oo;::::,hx1:oo",
"**8,#+;:;;$$sl;;;#OO;;:;;,hl,;Oo",
"-->;++;;;$#$hl1;;#O+;:;::,ll,:oo",
"FD0;#+;:;;##wh>;#++@;;::;;bl1;Oo",
"HGq;++;>;$#$uh>;##++;:::;:ll1;Oo",
"VV>;@@;>;$$$hb;;##+##;;;:1xd21oo",
"dh;;@@;>;;$;ss;;$#++;;;:::xd2;oX",
"vd;;@O;;:;;;wh;;;$++;:::::xx,;X.",
"bh;;@+;:;:;>hl1;;;+O;:;:::xx2;..",
"ff:;Oo;:;:;,cg;::;oO;;;;::lm:;. ",
"yq:;Oo;::;:,gl,;::+O;;;;::mb:;. ",
"ff,;Oo;:;;;,yl,:::oo$;$;;;ms1;XX",
"fc:;OO;:;;;>gc::::oo#;;;;;ws2;XX",
"ye,;@O;;;;;;cg>,;;OO#$$;;;hh:;+X",
"ey>;@O;;;:;;cj,,;$+O##;;$:ds2;++",
"99>;@@;::;;>lz>;;;O+##$$$;ss>;++",
"9%;;@O;;;;;;lz>;$$OO##$$$>sd>:++",
"ee;;OO;>;;;;lc,;;;+@#$;#;;vd;#++",
"ye;#OO;;;;;;cg;#;;@@;;#;,1vd;$++",
"ce;#OO;,;#,,yg;;:;+@;;#;;1Mb;##+",
"cy%#O@>:;,,,ig;;::#@:,%;;2ns>;@+",
"Mz;###qlgwllhg;:::#;dlhcllMl;$+@",
"nl;##;iluulluu;;::#;ilhlNBBn>$@@",
"-*%#;;;;;>1,;;::;;;;,8*-CZSA>;+@",
"&&%#;;;;;;>;;>;:;;;;,;*-ZZSZ1;@O"
};
