/* XPM */
static char *e71fdd34d2854dc1a323b24526c7cc8epAZFjv3iNYAkGwTI[] = {
/* columns rows colors chars-per-pixel */
"32 32 234 2 ",
"   c #711D8C",
".  c #7D1C94",
"X  c #7C1E9C",
"o  c #6F228A",
"O  c #73228E",
"+  c #7D238D",
"@  c #72288D",
"#  c #6C2C91",
"$  c #752491",
"%  c #792594",
"&  c #7D2994",
"*  c #762499",
"=  c #7A259C",
"-  c #7D2B9C",
";  c #722B97",
":  c #6A399B",
">  c #783A9A",
",  c #683882",
"<  c #7927A5",
"1  c #6D3DA3",
"2  c #6D3AA9",
"3  c #713FAB",
"4  c #6F3CB7",
"5  c #773DB4",
"6  c #7E4F83",
"7  c #754494",
"8  c #794C9A",
"9  c #67459B",
"0  c #6440AF",
"q  c #6A46AB",
"w  c #7C44A2",
"e  c #7443AB",
"r  c #7A45AA",
"t  c #754AAC",
"y  c #794AAC",
"u  c #7747A3",
"i  c #7854AD",
"p  c #6544B2",
"a  c #6B45B5",
"s  c #6D49B3",
"d  c #6C46BA",
"f  c #6C4ABA",
"g  c #6649B4",
"h  c #7444B3",
"j  c #7A45B3",
"k  c #734AB5",
"l  c #7B4AB5",
"z  c #7444BA",
"x  c #7A46BB",
"c  c #754ABB",
"v  c #7C4BBB",
"b  c #6D56BA",
"n  c #7D50B4",
"m  c #755AB6",
"M  c #7255BD",
"N  c #7F51BA",
"B  c #795DBA",
"V  c #6B52AE",
"C  c #7961BB",
"Z  c #7D4CC2",
"A  c #7B45C2",
"S  c #7556C3",
"D  c #7F51C1",
"F  c #755BC4",
"G  c #7C5CC4",
"H  c #7D5DCA",
"J  c #765BC8",
"K  c #7B62C4",
"L  c #7C63CB",
"P  c #7569CA",
"I  c #7B79CA",
"U  c #7C65D2",
"Y  c #7F7BD2",
"T  c #7F7AD8",
"R  c #831E96",
"E  c #86268E",
"W  c #812496",
"Q  c #812F9C",
"!  c #8A2A9D",
"~  c #892896",
"^  c #83379D",
"/  c #812DA2",
"(  c #893EA9",
")  c #845495",
"_  c #8957A9",
"`  c #854CB5",
"'  c #824DBC",
"]  c #8052B5",
"[  c #8352BE",
"{  c #8859B7",
"}  c #9859B8",
"|  c #9447AD",
" . c #A54CB2",
".. c #A44DBB",
"X. c #A750B1",
"o. c #A85DBC",
"O. c #8966BC",
"+. c #9C65BF",
"@. c #9467B7",
"#. c #9671B6",
"$. c #A06EA9",
"%. c #AC7BA7",
"&. c #A967BC",
"*. c #A678B6",
"=. c #814DC2",
"-. c #8353C4",
";. c #895AC4",
":. c #825DCB",
">. c #8756C6",
",. c #965CC7",
"<. c #A24EC0",
"1. c #8264CC",
"2. c #8866C5",
"3. c #9C60C0",
"4. c #8A75C5",
"5. c #817CC5",
"6. c #8F7CC4",
"7. c #837ECB",
"8. c #8A72C8",
"9. c #957AC9",
"0. c #866BD5",
"q. c #8479D9",
"w. c #9662D0",
"e. c #A665C5",
"r. c #A978C5",
"t. c #B676CB",
"y. c #A87CD5",
"u. c #B777D3",
"i. c #8D7CE4",
"p. c #A36EE0",
"a. c #AE7AE9",
"s. c #B5839E",
"d. c #BE98BD",
"f. c #C992B4",
"g. c #D59BB1",
"h. c #CC91B1",
"j. c #DCA4BA",
"k. c #DEABB7",
"l. c #DFA8AB",
"z. c #E4AFA8",
"x. c #E8ABBA",
"c. c #EAB4B4",
"v. c #EDB8BB",
"b. c #F6C1B9",
"n. c #958CCE",
"m. c #9984CA",
"M. c #8785D5",
"N. c #9581D2",
"B. c #9C8FD2",
"V. c #9889D7",
"C. c #9A96DD",
"Z. c #9D9BDB",
"A. c #9799DB",
"S. c #A686C8",
"D. c #A687D5",
"F. c #B788D8",
"G. c #A59DDF",
"H. c #A799D8",
"J. c #B697D9",
"K. c #B38CC7",
"L. c #BBA4DC",
"P. c #9B9AE2",
"I. c #9796E3",
"U. c #B78BE1",
"Y. c #A699E4",
"T. c #AC9BE1",
"R. c #AF92E4",
"E. c #B39BE4",
"W. c #BD9BE3",
"Q. c #BD92EB",
"!. c #BD9CE9",
"~. c #BB92E0",
"^. c #9EA0E0",
"/. c #A9A1E5",
"(. c #B1A4E7",
"). c #BBA4E7",
"_. c #C59ACA",
"`. c #C398D8",
"'. c #C285D4",
"]. c #DDA4CC",
"[. c #D8A7C7",
"{. c #CBA5DA",
"}. c #CAACDC",
"|. c #CCA7D3",
" X c #DCA6D2",
".X c #D3A9D3",
"XX c #DAABD2",
"oX c #D2ABDC",
"OX c #DEABDB",
"+X c #D7A4DD",
"@X c #C7B0DE",
"#X c #D5B1DA",
"$X c #CBA5CC",
"%X c #E3AAC3",
"&X c #EBAEC6",
"*X c #E2ACCB",
"=X c #E6A6CA",
"-X c #F0AFC7",
";X c #ECB2C9",
":X c #E8B3C6",
">X c #F4BBC4",
",X c #F2B4CC",
"<X c #F6B8CE",
"1X c #F5B7C4",
"2X c #ECACD2",
"3X c #E6A8D5",
"4X c #EBB4D4",
"5X c #EEBEDB",
"6X c #F4B9D4",
"7X c #F5B5D6",
"8X c #C083E2",
"9X c #C799E6",
"0X c #D69BED",
"qX c #DA9EEC",
"wX c #D99EF0",
"eX c #CB9EF9",
"rX c #C2A2EC",
"tX c #C9A7E5",
"yX c #D7A7E6",
"uX c #CDA6F3",
"iX c #C6ACF4",
"pX c #D7B1F0",
"aX c #E8ACE6",
"sX c #ECB9E8",
"dX c #F0BBE7",
"fX c #EEBFF5",
"gX c #EBADF8",
"hX c #FCC5CA",
"jX c #F7C4D8",
"kX c #FFD0D8",
"lX c #EFC2E1",
"zX c #F9C5E5",
"xX c #FBC5FD",
"cX c #FAC8F8",
/* pixels */
"A A x v v l l v x x x z c c k t n : N k v h z >.w.l { v v 5 ' 5 ",
"A x v Z [ l h h z Z -.D x a k l 1 y ] l q -.v k -.l l j j j ,.=.",
"A x x j j j l v a z A Z Z v v l >.r : 8 7 8 : y h j j ` ` [ a.p.",
"x x x j j e l ' x z z Z -.Z l k 2 u 9XcXcX%.7 ] x Z x x l 3 w.=.",
"x x ' v l j e h Z -.>.>.x a e v 5 +.xXlXjX[.) 8 ' A ' l y 1 [ 2 ",
"=.x h h l l v =.-.A Z Z x h j l ` u.zXhXc.kX%.+.>.5 x j ` n ;.N ",
"' j 3 j l [ >.;.S z 4 x Z v l ` ^ '.<X>Xz.c.[.xX8X` ' e t t q h ",
"x j v ;.;.;.l a A x Z -.v e j _ t.3X:Xz.b.z.jX3XgXo.} 8 y n h D ",
"z x v v l k k k z z z x -.l e @.aX2X&Xv.v.x.,X7Xf.qXaX7 r y h S ",
"x x j l k k c M s c d a k y r _  X%X&X<X<X,X2X,Xj.cXdXt.7 n a x ",
"v c k a k k f g 2 d a h k t t 8 [.j.*X4X7X7X,X-X<Xg.h._.F.] j a ",
"A c c k f s p 0 g a 0 c n t { &.[.[.XX=X3X3X2X-X<Xg.x.5XxX_ l A ",
"c c S p p p p g J S q a t { 9XpX.XXXXX[.].3X2X&X>XhXhXjXcX@.3 z ",
"A f d p p g b J J 0.M s q O.uXpX|..X.XXX].3X3X=Xx.c.z.l.5X$.2 4 ",
"f A p g f b J J J 1.H 2.i _ ~.rXtX{..XXX X=X=X=X&Xx.hXb.jX$.r x ",
"g g f S S J J S U J b 0.m 9 D.rXtX{.$XXX].].=X2X-Xx.c.hX6XcX,.: ",
"q m F L L L L S P K K C K 8.V.J.J.@X#X.XXX3X].=X&X1X>XjX4XcX*., ",
"V m C K K P L U F L L K m m 8.N.).@X}.}.oXOX].%Xx.x.>XjX4XlXs.6 ",
"M G H H G H H H G 1.{ B O.4.R.iXtX@XL.J.oXOX X%X&Xx.:Xx.;XzX$X%.",
"G L :.1.H :.H J 1.B m m 8.D.).iX).L.J.`.{.yX+XXX*X%X%Xj.;XzXlXf.",
"L U U 0.i.0.0.U G B 2.9.D.T.T.T.).W.!.9XtXyX+X3X].j.%Xk.6X6X6Xg.",
"P J U q.i.M.0.U b I V.Y./.(.(.).E.!.).9XuXuXtXyX3X[.[.:X>Xx.<X,X",
"P P P T M.T T Y M.M.I.I.A.A.A.G.T.E.E.!.rXrX{.tXtX#X.X*X*X&XjX<X",
"I Y T T Y I Y M.I.I.I.I.Z.^.^./.G.G.G.T.E.T.H.J.L.pX.X$XXXdX5Xs.",
"I 5.5.I 5.M.5.7.M.V.C.I.Z.P.P.C.Z.Z.Z.Z.Z.Z.Z.Z.H.H.S.K.@X#Xf.d.",
"#.M.6.6.6.6.m.O.4.5.6.N.V.9.N.D.n.n.n.n.n.n.n.m.B.m.m.S.J.L._.L.",
"#.*.S.F.F.F.J.D.F.y.y.Q.eX9Xy.y.O.#.9.D.J.W.!.Q.`.U.F.u.'.9XqXyX",
"tXqXwXwXwX0XF.u.} > # w ,.e.,.,.} ,.&.e.r.t.t.t.u.} ( ;   ^ o.t.",
"e.o.o.} | | - @ O O o o $ / | | ..<... .X.X.X. .! R ! / E W ~ + ",
"+ O + $ % & + O O & Q & % %     = X . W E E E ~ ! R . R R R W E ",
"* = * % * - & % Q %   @ % - < < < < = % + + + . . % < = < = @ o ",
"= < < < = = = * * $ % - - O   < < < = = & + + + % / = ; < ; # > "
};
