/* XPM */
static char *e7f04b194ba64355e1521987a8f3200a9SJXgvGBXo9qZpP9[] = {
/* columns rows colors chars-per-pixel */
"32 32 237 2 ",
"   c #1C0C3B",
".  c #1A1C35",
"X  c #1D123C",
"o  c #1B183B",
"O  c #0D013F",
"+  c #251C2D",
"@  c #240D3C",
"#  c #241A33",
"$  c #24153C",
"%  c #2A153C",
"&  c #231A3C",
"*  c #2B1A3D",
"=  c #291737",
"-  c #1A0C45",
";  c #1D0A4C",
":  c #140045",
">  c #0C1746",
",  c #1D1343",
"<  c #1B1A43",
"1  c #1F144B",
"2  c #1E0753",
"3  c #1E1253",
"4  c #1D1850",
"5  c #0C0644",
"6  c #220C43",
"7  c #230C4D",
"8  c #2B0D4B",
"9  c #250747",
"0  c #241543",
"q  c #2A1444",
"w  c #231A44",
"e  c #2B1B43",
"r  c #23144B",
"t  c #2B134C",
"y  c #251A4B",
"u  c #2A1A4B",
"i  c #311646",
"p  c #250C52",
"a  c #290D53",
"s  c #24015C",
"d  c #2B0A55",
"f  c #320A5B",
"g  c #251353",
"h  c #2B1454",
"j  c #241A53",
"k  c #2A1C53",
"l  c #26145A",
"z  c #2B145C",
"x  c #26195C",
"c  c #2C1B5A",
"v  c #311B56",
"b  c #33155B",
"n  c #331C5C",
"m  c #391859",
"M  c #262246",
"N  c #2C2158",
"B  c #38265D",
"V  c #1B0C67",
"C  c #2D0B66",
"Z  c #340B69",
"A  c #2D1B66",
"S  c #281564",
"D  c #311364",
"F  c #311B61",
"G  c #3A1C63",
"H  c #34146B",
"J  c #3B1469",
"K  c #331C6B",
"L  c #3B1C6B",
"P  c #280B73",
"I  c #390C78",
"U  c #3D1C75",
"Y  c #391877",
"T  c #1D2C67",
"R  c #39286C",
"E  c #382468",
"W  c #382376",
"Q  c #2C296E",
"!  c #42156B",
"~  c #401A67",
"^  c #431374",
"/  c #421A76",
"(  c #431D7C",
")  c #48167A",
"_  c #460E79",
"`  c #462879",
"'  c #513575",
"]  c #492E72",
"[  c #3D0C83",
"{  c #3B1987",
"}  c #2A1483",
"|  c #3C2388",
" . c #3F2799",
".. c #460988",
"X. c #510E8F",
"o. c #441582",
"O. c #441D82",
"+. c #4C138C",
"@. c #411889",
"#. c #49198B",
"$. c #481788",
"%. c #511C8B",
"&. c #56178D",
"*. c #4C0C92",
"=. c #490797",
"-. c #550B97",
";. c #4B1796",
":. c #541293",
">. c #53119B",
",. c #541B9C",
"<. c #581997",
"1. c #621398",
"2. c #600E97",
"3. c #4A2686",
"4. c #552C8B",
"5. c #552789",
"6. c #4C3888",
"7. c #5A3587",
"8. c #522294",
"9. c #5C2B93",
"0. c #5D239C",
"q. c #572797",
"w. c #483793",
"e. c #56309D",
"r. c #64279A",
"t. c #693B9D",
"y. c #5A0BA2",
"u. c #5819A6",
"i. c #5D1BB4",
"p. c #510BA8",
"a. c #6317A7",
"s. c #631BB3",
"d. c #6617B8",
"f. c #711DB5",
"g. c #6A11A8",
"h. c #5822A6",
"j. c #6B22AC",
"k. c #682BA9",
"l. c #7525A7",
"z. c #6936AB",
"x. c #6D22B3",
"c. c #6C2BB3",
"v. c #6C23BC",
"b. c #6826BB",
"n. c #7325BB",
"m. c #7A24BA",
"M. c #752DBD",
"N. c #7629B6",
"B. c #6936B7",
"V. c #7B32BD",
"C. c #7634B6",
"Z. c #7035AD",
"A. c #364D83",
"S. c #504F92",
"D. c #72569A",
"F. c #675295",
"G. c #56659C",
"H. c #73619D",
"J. c #5A47BB",
"K. c #6A4BB3",
"L. c #7846B6",
"P. c #6D52B1",
"I. c #7068B2",
"U. c #741AC2",
"Y. c #6929C4",
"T. c #702BC1",
"R. c #7A2CC3",
"E. c #7528C7",
"W. c #6B33C5",
"Q. c #7432C3",
"!. c #7C35C2",
"~. c #7739CA",
"^. c #7D29D4",
"/. c #7D39D3",
"(. c #5F40C2",
"). c #7A55D8",
"_. c #7949CF",
"`. c #7E6FC2",
"'. c #7E68E6",
"]. c #842CB9",
"[. c #873ABE",
"{. c #805DBB",
"}. c #8060B3",
"|. c #8A73B7",
" X c #882AC6",
".X c #902ECF",
"XX c #8638C8",
"oX c #9638CE",
"OX c #882CD2",
"+X c #8A3DDA",
"@X c #8735D7",
"#X c #9637D5",
"$X c #902DD6",
"%X c #9B3BE5",
"&X c #A03DE5",
"*X c #8C55C5",
"=X c #8949D6",
"-X c #9747D8",
";X c #8453DC",
":X c #9B57D6",
">X c #8B4CC1",
",X c #956DC7",
"<X c #A562D5",
"1X c #8C57E4",
"2X c #9B54E7",
"3X c #9752ED",
"4X c #A852E3",
"5X c #A959F5",
"6X c #B558FC",
"7X c #A247E0",
"8X c #9666E8",
"9X c #9968F3",
"0X c #9670E7",
"qX c #A767E8",
"wX c #B365E4",
"eX c #AC67F8",
"rX c #B467FA",
"tX c #BE71FE",
"yX c #B679F9",
"uX c #C463FE",
"iX c #C978FD",
"pX c #D27DFF",
"aX c #AB86D4",
"sX c #B395EC",
"dX c #BB88F2",
"fX c #BCACF5",
"gX c #C78CFD",
"hX c #D385FF",
"jX c #CB9CFF",
"kX c #DA92FF",
"lX c #CAB7F6",
"zX c #D6B7FF",
"xX c #DDAAFF",
"cX c #E9B9FF",
"vX c #F6B1FF",
"bX c #E5CAFF",
"nX c #EDD0FF",
/* pixels */
"& $ q u @ * $ 0 N j 1 y % % e t 1 1 7 m t r u $ = = = % 0 r g z ",
"& $ r b G G b h l p r k 0   t c n H.E 7 7 7 N q q & e e   t ] G ",
"& t H @.;.,.0.8.Z G h 6 r n ` 4.7.' r l K H ` D.h 1 N r ] |.D.t ",
"0 g I ;.i.OXV.V.yXt.G v h b Y 3.~ 8 z S C O.5.7.U ] 5 E |.F.N y ",
"l S #.k.m.uXoXXXvX>X4.L ; k E p 9 f C ( 5.) ;.#.[ _ |.,X' - > T ",
"A Y 8.c. XuXoX Xf.r.3.H h h a ` D.L ^ $.#.k.W.b.!.:X*X4.3 Q G.A.",
"3 K #.a.].oX].l.k.8.C p c ; K sXsXH o.&.u.i.M.:XiXXXO.P  .I.S.. ",
"y F / 1. X].].:.o.s x y r c H 5.#.5.r.X.i.+XeXeXV.,. .J.J.Q 5 4 ",
"# & G ) r.<X_ ! b 0 w . w c ` I &.X.<.>.[.tX5X/.W.(.J.P.| : K 3.",
"+ # t ~ C ! f 8 t X M < y S { ;.j.j.R.rXiXXXb.b.).'.J.P 2 ' D.( ",
"M u g F z a A 3 x Q S x 6.4.h.c.n.oXrXqX/.M.=X;X).} { #.z.z.` h ",
"q t h ; l j 1 ' S.V | | e.B.,.v.=XiX2Xb.b./.9X1X,.=.,.Z.Z.Z g j ",
"& $ k g N j 5 6.w.| @.[ +.*.v.eXtXT.T./.).3XY.d.y.].-X0.H A l 3 ",
"$ % r j j j z K { ;.<.:.X.C.iXeXQ.W.W.1X9X~.i.d.$X.Xa.*.C 3 E j ",
"$ e u - x 3 ` O.:.>.XXm.4XhX#Xv.Y.).eX;XY.OX@X@Xd.p.h.z.) J 9 q ",
"e 6 r K I.' I ;.=.f. X6X6Xm.M.!.;X1XT.T.$X%X%XOXd.p.u.z.$.7.m i ",
"7 ; l K I.,X+.V.m.7XiX4XE.Y.~.9X3XE. X.X%X%Xd.p.f.v...*.,.O.h y ",
"B 2 W W Z jX8X~.N.oX].-XeX).9X).E.OX#X#XOXU.U.g.V.s.s.!...o.h r ",
"  h Y | 4.sXbXjXwX:XhXhXXX@XU.5X+X7X#X.X6X6X^.^.R.-.3XhXu.o.m q ",
"* m | } w.fXnXbXvXgXwXl.-.y.p.@X@X].f.f.5X6XE.@Xs.y.f.@XV.%.f 8 ",
"@ L {  .`.lXbXnXzXyXV.<.-.g.#Xu.:.#.X.1.f.d.b.i.=.=.-.s.!.Z.4.a ",
"i b P ).lXzXbXnXjX-Xf.j.C.C.&.&.Z / 5.&...+.;.<.L.B.[ ,.Z.e.H d ",
"* v P.0XB.0XdXvXvX:XN.C.c.I 5.` g B S.m b ~ 8 ' lXD.Z / / W F l ",
"% u 3.@.=.u.=X-XkX:X..:...@.3.c 1 - @ 8 i 8 @ % e   n b E z 3 j ",
"* % z I *.i.E.m.[.wX-.V.B.[ z - R W H J ~ f 8 e y 0 7 g l g g 4 ",
"& $ r J h.Q.!.x.1.1.j.5X~.[ ` p E Y 3.q.9.) b v g y g r r r 1 < ",
"o w $ n 4.k.r.:.&.l.v.Q.W.;.) U s e.qXM.N.r.9.D z z g 7 % * & + ",
"& w & y W ` / / Z ^ h.u.yXC.<._ 8.h.Q.XXR.qXC.5.Y K F t % * = + ",
"& M & y A W E E n p / dXxXgX>Xk.[ ;.i./.+XkX:Xq.{ W K a q * * * ",
"& & $ 0 A A c k X w 7 L aX5.^ 9.3.Y u.i.M.Z.L.I.W W F j 6 q * % ",
"g 7 $ * r j 1 o M . y , B @ m m E R Y @._ ) ~ ] c x y y $ $ 0 0 ",
"z 7 * * 6 1 y < . . o M   e 0 q M k D s ! d e , < < < < & & w 0 "
};
