/* XPM */
static char *_7fc13a6c02b4a32c22fdd34675b2531okwlniIG2onO5JJn[] = {
/* columns rows colors chars-per-pixel */
"32 32 232 2 ",
"   c #020104",
".  c #0C010E",
"X  c #070109",
"o  c #0C0114",
"O  c #15011B",
"+  c #1A001C",
"@  c #170215",
"#  c #1D0021",
"$  c #5C005D",
"%  c #550057",
"&  c #57265E",
"*  c #580168",
"=  c #570577",
"-  c #57107A",
";  c #650165",
":  c #6A0065",
">  c #650468",
",  c #6B026C",
"<  c #690B6C",
"1  c #73016E",
"2  c #730D6E",
"3  c #760066",
"4  c #64116F",
"5  c #6E186F",
"6  c #650174",
"7  c #6C0374",
"8  c #6D0B7C",
"9  c #670A7A",
"0  c #730374",
"q  c #7B0275",
"w  c #730C74",
"e  c #7A0C75",
"r  c #74047B",
"t  c #7D047C",
"y  c #730C7C",
"u  c #7C0C7D",
"i  c #631474",
"p  c #6B1574",
"a  c #64127C",
"s  c #6A137B",
"d  c #6C1A7C",
"f  c #621A7D",
"g  c #721474",
"h  c #74157B",
"j  c #7A137C",
"k  c #741A79",
"l  c #7B1B7B",
"z  c #7A1675",
"x  c #5F2462",
"c  c #5C3063",
"v  c #6B376D",
"b  c #752076",
"n  c #723171",
"m  c #672565",
"M  c #7E447F",
"N  c #830D7D",
"B  c #830878",
"V  c #81177E",
"C  c #5C0D85",
"Z  c #5C0D89",
"A  c #580686",
"S  c #5C1587",
"D  c #5D0994",
"F  c #5F189A",
"G  c #630685",
"H  c #620D85",
"J  c #6E0D84",
"K  c #65068C",
"L  c #640B8B",
"P  c #68098B",
"I  c #6C0587",
"U  c #730681",
"Y  c #7E0284",
"T  c #720D84",
"R  c #7C0D84",
"E  c #7A0D8C",
"W  c #750B8A",
"Q  c #641385",
"!  c #6D1384",
"~  c #6B1B84",
"^  c #63148A",
"/  c #6A148C",
"(  c #621C8A",
")  c #6C1B8A",
"_  c #661C86",
"`  c #741383",
"'  c #7D1383",
"]  c #731C84",
"[  c #7B1D84",
"{  c #73168C",
"}  c #79148C",
"|  c #731C8E",
" . c #7C1B8A",
".. c #640492",
"X. c #640C92",
"o. c #6A0D93",
"O. c #6D0D99",
"+. c #690798",
"@. c #710D91",
"#. c #740B9D",
"$. c #631593",
"%. c #6C1693",
"&. c #661994",
"*. c #6C1B94",
"=. c #64129B",
"-. c #6D149A",
";. c #6D1D9A",
":. c #66199D",
">. c #731593",
",. c #731C94",
"<. c #7A1B96",
"1. c #74139B",
"2. c #7A149B",
"3. c #721B9A",
"4. c #7C1B9B",
"5. c #5F2088",
"6. c #6E2183",
"7. c #67258F",
"8. c #74248F",
"9. c #7B248B",
"0. c #762789",
"q. c #6A2296",
"w. c #722193",
"e. c #73249C",
"r. c #7A259D",
"t. c #752B9D",
"y. c #7C2D9C",
"u. c #782692",
"i. c #7B339B",
"p. c #74369D",
"a. c #6A1CA2",
"s. c #6B18A6",
"d. c #7315A2",
"f. c #741BA2",
"g. c #7C1DA2",
"h. c #711EAB",
"j. c #7D1BA7",
"k. c #7C0AA9",
"l. c #6C21A4",
"z. c #7221A1",
"x. c #7C23A3",
"c. c #7A2BA3",
"v. c #7424AC",
"b. c #7B2AAC",
"n. c #7629A7",
"m. c #7D31A6",
"M. c #7E2DB4",
"N. c #7D30B4",
"B. c #830C83",
"V. c #850989",
"C. c #841484",
"Z. c #84128A",
"A. c #8B138D",
"S. c #841A8B",
"D. c #8B1B8D",
"F. c #871A83",
"G. c #861894",
"H. c #921993",
"J. c #880890",
"K. c #862787",
"L. c #8A328E",
"P. c #872597",
"I. c #9A229B",
"U. c #942794",
"Y. c #81339D",
"T. c #9A3699",
"R. c #A22B91",
"E. c #811EA2",
"W. c #8024A4",
"Q. c #822CAC",
"!. c #8329A6",
"~. c #8233AD",
"^. c #8337A7",
"/. c #872AB5",
"(. c #8633B2",
"). c #8534BC",
"_. c #893AB2",
"`. c #9836BC",
"'. c #9B33A2",
"]. c #A636A7",
"[. c #AC38B3",
"{. c #904890",
"}. c #904CB7",
"|. c #A44CBB",
" X c #B346B2",
".X c #AF50B6",
"XX c #AF4CA9",
"oX c #B075AF",
"OX c #B46FB3",
"+X c #B574B7",
"@X c #8B39C2",
"#X c #9A48C6",
"$X c #A855CD",
"%X c #B05DDF",
"&X c #BF4CC5",
"*X c #AA65CA",
"=X c #B46BD8",
"-X c #B06ACC",
";X c #C54BC5",
":X c #C659C8",
">X c #DE5DDB",
",X c #D451D1",
"<X c #CE4AD5",
"1X c #C97AC8",
"2X c #C97AD8",
"3X c #D06CCD",
"4X c #DD58E5",
"5X c #DD60E0",
"6X c #C579E9",
"7X c #E362E8",
"8X c #EE71F3",
"9X c #F77EF2",
"0X c #B481BA",
"qX c #BD84C3",
"wX c #CA81CB",
"eX c #D68CD7",
"rX c #DE91DF",
"tX c #E283DD",
"yX c #D383FE",
"uX c #DE98E0",
"iX c #E693EB",
"pX c #E68FFF",
"aX c #FE82FD",
"sX c #FC8DF4",
"dX c #E69EFF",
"fX c #FF9EFF",
"gX c #E48DEB",
"hX c #FDA3FD",
"jX c #FFA9FF",
"kX c #FFB2FF",
"lX c #FABBFF",
"zX c #FFC3FF",
/* pixels */
"3.-.e.S 7.5.5.S Z *.X...j.#.d.d.X.$.l.a.=.s.h.s.s.s.h.a.=.S $.q.",
"_.b.m.c.}.p.7.S $.;.d.j.Q.h.).X.;.l.v.N.M.v.h.v.).).M.b.z.;.z.Z ",
"_.) c.=XdX_.&.&.x.d.d.O.-.$.q.S q.;.z.N.).z.:.b.:.b.yX%XQ._.Z e.",
"e.m.^.=XdX#X~.h.O.D d.X.f.q.A S ;.e.^ *.n.$.C z.f.Q.$X#XQ.b.x.*.",
"S e.S ^ ^.A Z +.#.+.d.o.S 5.p.S q.r./ / *./ C ^ c.3.^ *.%.%.x.P ",
"^ *.^ &.e.= L j.O.O.1.x.q.}.lX*X) <.>.L ,.w./ _ C / c.e.3.3.o.x.",
"= ;.;.*.*.,.%.P P 1.4.4.) m.-X~ 8 W T J ` | | Q Q i.^ ,.(.b.Q.f.",
"/.-.L ;.Q H = / { <.P.9 P.Y.s ] } U U y J ! ` 9 | ,.r.Z (.#XD =.",
"D ......Q a s f K.[ 8 P.j F.S.0 r Z.Z.r S.7 J |.u./ *.;.;.a.).v.",
"k.#.#.3.| ~ d 9.p [ w 0 D.N 0 N B.> D.D.R P.T P.{ G *.f.v.:.l.N.",
"E.#.2.>.9.~ 4 0.K.< F.g 3 V e e w C.; , ' R ' G.G.@.4.3.n.F A F ",
"+.2.@.J 9.9.g k l V $ 2 2 V .XtX1XXXk w j > C.E G.@.2.>.b.n.n.F ",
"I G.I 8  .[ F.y : e K.< K.1X+Xm n +XwXb % K.u R V.W E 2.<.3._./ ",
"P.G.y  .' u Z.B.I.0 , k eX{.O # O # M rXb ; 0 Z.H.Y J.A.W 6 | ! ",
"h $ h w , Y Y J.J.].U.iX0XO O X O @ + qXrXT.].B.V.0 V., U 7 * w ",
"L.l :XXX].5X<X4XaXfXkXlX& O     X o o v zXfXkX9X>X,X4XI.;X:X' T.",
"T.l :X XH.8X<X7XaXhXhXzXv . X     o o c zXjXjXaX>X;X5XI.;X:XS.'.",
": 3 : ' 0 V.V.V.H.[.T.1XoX@ @ X o X O 0X1XL. XN B., B., r r 7 7 ",
"2 l w e N t B A.Y A.; 2 eXn + + O # v wXl ; C.B N B u ' y 7 } ` ",
"6 7 y , e C.B B B 1 R.V z 1X+Xx x +XwX5 2 U.N B.0 H.e , p w 8 7 ",
"} } 6 ` l e F.3 3 B 3 N 0 K..XgXiX{.l e u ; C.q N F.2 > g [ s s ",
"P.P ` ` > 2 V XXR.B B N Z.B.U S.j j 1 u H.H.t H.XX< g d 4 p s s ",
"E.W <.! * z z 3XsXq q q t Z.R Y y q Z.B.1 U.D.3XXX> d b b = ~ s ",
"j.`.G | ~ s < 9.U.C.t A.V.r Z.R 7 C., u C.U.Z.K.] 4 4 i i.9 ) { ",
"2.`.W.>.w.| 8.= ` ` U r R ' j j  .F.D.S.S. .h 8 d i d Y.a e./ 3.",
"d.G.2.r.,.Q ,.4.3.<.>.{ 8 8 g k [ [ ` 9 8 8 s i ~ -Xi._ w.) 4./.",
"#.P >.*.%.q.&.^ 3.3.W.r.! i p 4 9.0.] ! ! ,.y.Y.2XzX*X^.r.A `.K ",
"@.P >.C ;.n.&.b.z.-.x.!.| ~ 6.i 6.~ ] ! | r.!.^.^.6Xy._ ,.P !.1.",
">.L *.^ e.e.c.yX(.3.3.x.*.w.i.8.~ 6.) / / >.*.%.- w.c.y.= ,.>.<.",
"H Z / S e.p.t.6XQ.%.$.-.%.;.e.&._ ) ) / P P L H / *.= = $XpX{ <.",
"$.H $.( 0.i._ w./ P K -.1.=.D Z C H L A K P ..L C H _ ) Y.|.a 9 ",
"~.Z q.{.7.f - = Q L P +.O.D D =.^ / %.o.O.O.O...L = Q ~ s = = * "
};
