/* XPM */
static char *dd93e2394d6b4d38dd021b972ec2d36cBRpeSiHyAEBCNONw[] = {
/* columns rows colors chars-per-pixel */
"64 64 222 2 ",
"   c #3C2E1B",
".  c #3A391B",
"X  c #3A260D",
"o  c #432E17",
"O  c #443216",
"+  c #4C3515",
"@  c #45351D",
"#  c #4B361B",
"$  c #453A1C",
"%  c #4D3B1C",
"&  c #4A3A16",
"*  c #543917",
"=  c #51361C",
"-  c #533C1D",
";  c #5A3D1C",
":  c #543717",
">  c #443522",
",  c #4B3721",
"<  c #463A25",
"1  c #4D3C23",
"2  c #4C3D29",
"3  c #463E29",
"4  c #533E23",
"5  c #5A3E24",
"6  c #5B3D28",
"7  c #503F2B",
"8  c #623F29",
"9  c #2A491B",
"0  c #3C451C",
"q  c #33491D",
"w  c #38451C",
"e  c #25521D",
"r  c #1E5522",
"t  c #1E4F20",
"y  c #294B20",
"u  c #334C23",
"i  c #3B4C23",
"p  c #3B4825",
"a  c #255424",
"s  c #2B5524",
"d  c #2A5827",
"f  c #2A5729",
"g  c #2D5B2A",
"h  c #245826",
"j  c #335325",
"k  c #3B5325",
"l  c #36552A",
"z  c #3C542B",
"x  c #325C2D",
"c  c #3B5B2D",
"v  c #385827",
"b  c #3B5E30",
"n  c #335E30",
"m  c #2D622E",
"M  c #32612F",
"N  c #3B622F",
"B  c #2E6432",
"V  c #346433",
"C  c #3A6434",
"Z  c #366A36",
"A  c #3A6936",
"S  c #3B6739",
"D  c #366D39",
"F  c #3C6B3A",
"G  c #3D733D",
"H  c #35703A",
"J  c #43431D",
"K  c #4C411D",
"L  c #46481F",
"P  c #55411E",
"I  c #5A411F",
"U  c #434423",
"Y  c #4C4223",
"T  c #434C24",
"R  c #484923",
"E  c #4E422A",
"W  c #464D2B",
"Q  c #4D4C2A",
"!  c #43472A",
"~  c #554224",
"^  c #5B4424",
"/  c #544A26",
"(  c #5C4925",
")  c #54432A",
"_  c #5B452A",
"`  c #544C2B",
"'  c #5C492C",
"]  c #44542B",
"[  c #49522A",
"{  c #53532C",
"}  c #5C512E",
"|  c #51582E",
" . c #554631",
".. c #5D4B31",
"X. c #5B4A35",
"o. c #4C5531",
"O. c #435D32",
"+. c #4A5C33",
"@. c #5C5332",
"#. c #565B36",
"$. c #614524",
"%. c #624926",
"&. c #61452B",
"*. c #634B2C",
"=. c #694C2B",
"-. c #6A4C26",
";. c #65502F",
":. c #6A512E",
">. c #73542E",
",. c #634D32",
"<. c #694E33",
"1. c #654630",
"2. c #655234",
"3. c #6C5334",
"4. c #6D5836",
"5. c #665439",
"6. c #6B553A",
"7. c #655B3A",
"8. c #6D5A3C",
"9. c #725534",
"0. c #735936",
"q. c #795B35",
"w. c #72573A",
"e. c #735B3C",
"r. c #7B5D3C",
"t. c #7A5538",
"y. c #416334",
"u. c #406638",
"i. c #426D3D",
"p. c #4B6639",
"a. c #55643B",
"s. c #41713E",
"d. c #64633D",
"f. c #74613C",
"g. c #7B613D",
"h. c #3F7541",
"j. c #6D5B41",
"k. c #735D41",
"l. c #7B5E41",
"z. c #446F41",
"x. c #4B6E43",
"c. c #5B6A41",
"v. c #437241",
"b. c #457442",
"n. c #4A7545",
"m. c #467945",
"M. c #497947",
"N. c #4A7B49",
"B. c #4D7A4A",
"V. c #4A7D49",
"C. c #4C7D4B",
"Z. c #4E7E4D",
"A. c #4C7C4A",
"S. c #497B49",
"D. c #517D4D",
"F. c #5D7349",
"G. c #537F50",
"H. c #6C6342",
"J. c #666A44",
"K. c #766143",
"L. c #7C6343",
"P. c #756549",
"I. c #7B6549",
"U. c #7C6A4B",
"Y. c #7F6B47",
"T. c #68734B",
"R. c #78724E",
"E. c #7C6A50",
"W. c #7A7352",
"Q. c #6A7950",
"!. c #805A3A",
"~. c #83643D",
"^. c #815E43",
"/. c #826444",
"(. c #8C6545",
"). c #846A46",
"_. c #8B6945",
"`. c #8C674A",
"'. c #846B4B",
"]. c #8B6C4B",
"[. c #86674B",
"{. c #936D4C",
"}. c #936A47",
"|. c #8D714E",
" X c #86724C",
".X c #92734E",
"XX c #896E50",
"oX c #846C51",
"OX c #936D52",
"+X c #996D51",
"@X c #867353",
"#X c #8C7353",
"$X c #8B7A5C",
"%X c #8B755A",
"&X c #937452",
"*X c #9A7453",
"=X c #947954",
"-X c #9A7B56",
";X c #94765A",
":X c #957B5A",
">X c #9B7D5B",
",X c #A17F5C",
"<X c #4E814E",
"1X c #51814F",
"2X c #4E8350",
"3X c #538452",
"4X c #87815B",
"5X c #9C815C",
"6X c #A2865D",
"7X c #9C8263",
"8X c #988868",
"9X c #9E8A71",
"0X c #A28464",
"qX c #A68965",
"wX c #A48B6B",
"eX c #AA8C6B",
"rX c #A88967",
"tX c #A68E71",
"yX c #AD9474",
"uX c #B5997A",
"iX c #B39573",
"pX c #B08F6B",
/* pixels */
"t a a a f a t f f f f f f f r f g h e a a s a e d d d d e s a d h r a r a a a a s e a h a t r h f f a s j s j s s s a d d s s s ",
"f V B V S S S S S S S S S S S S F C V M M V S V g g g x m M V V V B B B V n x x d d x V B g m B B Z C S C y.A u.A M g g M M C c ",
"t n n n S h.h.h.h.h.S z.S S h.S A F V Z V Z A A V V S A F F F F Z Z Z Z V n n n x M N A D Z Z Z A F z.z.i.u.i.s.i.S M M V A C C ",
"a b h.S z.S.S.Z.z.n.z.x.h.z.h.S i.G A A F i.F G Z A F F F F A F h.F S S h.S h.S M M Z u.S S Z S Z F i.i.i.u.u.A F S Z V F A C x ",
"l S h.S x.G.3X3XZ.Z.Z.Z.G.x.h.z.A F F F F G F F F F G G G F G F s.u.S S b S h.S s.s.s.s.s.s.s.s.b.b.M.n.b.s.G F S s.v.s.i.F A V ",
"f b b h.z.S.2X2XG.G.S.G.G.x.x.z.F A G G G H Z F G G s.s.b.b.b.b.m.v.F F h.h.z.n.1XV.M.D.D.D.1XC.N.D.N.1X<X<Xb.G G b.N.i.F F i.A ",
"n b x.n.G.G.Z.3XG.G.G.G.G.G.G.G.N.N.<X<XN.N.V.N.N.V.<X<XV.V.V.<XD.D.A.N.C.2XG.G.1XV.M.C.D.D.M.C.A.D.D.1X<X<XS.<Xb.N.A.M.b.b.F A ",
"n h.z.Z.G.G.Z.2X2XG.Z.G.G.G.G.G.1X1X<XN.M.N.<X1X1X3X1X<X<X<X<X1XM.m.b.b.m.b.b.h.M.m.M.M.C.M.m.m.b.x.D.D.<XS.<X<Xm.N.3X1X<XV.b.Z ",
"V Z N.3XN.m.b.m h.G.z.G.G.S.G.G.1X<XN.<X3X<XN.3X1X3X<XD.3X<XN.m.s.G b.m.s.s.s.s.i.s.s.s.Z Z s.s.n.O.D.v.<Xb.<X<X3XD.n.B.3X3XM.Z ",
"M V m.N.s.i.F g B B S h.S.S.m.h.N.A.N.Z.1X<XN.1XN.N.N.N.N.N.M.m.G b.m.m.<Xs.s.s.y.N M M A G H M c p.n.x Z F H b.n.v.i.D.G.1XS.G ",
"m V b.s.V b x s B n S S h.S.h.h.v.M.n.M.B.A.A.D.M.m.m.m.M.m.m.b.G G G s.i.p.y.N y.u.v e Z u.m m i F.F.s Z G Z v.n.n.n.3X1X<X<X2X",
"m Z F V l l k u S ! S z b x.h.h.F v.M.M.s.M.B.s.v.v.v.v.i.i.F F G F Z N N y.O.v a.a.y.v N m e M z J.F.c S G F M.i.C y.p.s.G G <X",
"M N N s j 0 i 0 w T i v b S z.g C S b.b.i.s.n.F i.u.i.A S C C C D Z N y.+.a.d.d.d.3Xa.k v e e N W Q #.O.l S S i.C v l C u.A F G ",
"m M s j i 0 L ` ` d.W T l f C s x x i.s.C A i.S u.F C C V n V C A N N y.a.R.R.R.f.g.| q v v e j Q $ [ +.s b C A x l z O.i.s.H H ",
"e s j 0 W J / k.$X$XJ.[ q j b x x f C i.v x c x C x C x x x b n Z N v ] | d.f.f.f.2.R L T v j q E ` Q O.l C g S b O.O.z N F Z B ",
"9 j k ] Q $ _ #X8X4X4X{ w z l c b j y.p.l 9 j q j j j u u u l c v k k L | ;.;.I %.( / { T v v q Y 2.` p i z 9 O.T.T.c.+.c i.G H ",
"9 y z o.) - *./.:X@X8XR.| k q ] O.z z p Q.| T 0 L [ T T W W ! W i 0 L Q 1 ..) 5.4 1 Y ` Q T k L / K R R | T #.J.W.W.j.Q a.x.n B ",
"u p p ` ) 5 ^ 9.:X:X8X4X[ w ] T o.W T . #.J J R L @.2.` Y < 3 ! ` ` Q ` Y @.)  . .1 Y ` { R L / 2.' 2.J { #.H.U.I.oXk.E W O.l h.",
"p u p E ) 5 6 $.2.;.} 7.L 0 #.R . Y R U { R K } R ' ` Y ) ) 2 1 K P R P % ,.6 4 4 , 1 @.} / { 7.K.; 2./ @.@.Y 2.k.l.<., ! W l b ",
". p U ) _ &.&.^ %.^ K { / L { { Y ` ` ' ' P & K ~ ~ # # Y ~ 1 _ ' ~ _ ^ ~ &._ _ 5 ,.I.@X@XY.U.%XL.&.2./ } / O 4 1.8 8 4 X.#.p p ",
". p Q ) _ _ &.^ ^ ' } ` @.U > @X8X>X@X'.L.8.} _ ~ - % ^ _ = %.`.=XI.L.r.3.%.^ <.,.#XwXtX>X:X:X>X`.XXl.- ~ @.8.~ 8 8 8 8 5.@.< . ",
"  < E ) ) 5 ^ 5 & % Y Y @.' E 9X5X.X|.`.'.8.*.4 ) 4 - ,.l./.&XiXiX&X&X[.e.5 - =.I.0XuXeX;XOX+X`.OX+Xl.5 ~ ~ 5.~ 1.8 <.<.,. .$ . ",
"  < 1 ) 5 4 4 4 ' ~ 1 Y X.2.j.;X{.(..X].#Xl.6.~ _ % = ,.&XwXpXpXrX{.].g.e.^ ; ( #XwXyX0X*X+X+X+XOX^.l.&._ O & _ <.8 1.<.1.^ @ @ ",
"@ # , 6 5 - 4 ^ 1 ~ Y ' , ) %X;X*X}.-X!.l._ ,.) , ~ ~ *.[.>X5X=X,X`.].0.r.( P ^ /.#X:X;X{.`.+X+X+X^.[.5 4 / ) 8.<.= 6 1.1.1., o ",
"# 4 4 5 <.<...,.2.Y % 1 _ 6 6 ;X{.}..X~.9.e.l...) ~ , ^ ).5X5X|..X/.9.:.:.( P I  X4X X_..X.X}.(.^.9.:.*.~ Y / _ j.I.j.&.6 1., , ",
"# 4 &.w.[.l.e.L.8.2.2.` _ 6 6 ^.6X~.q.>.2.K.8.4 _ ,.~ ^ 4.).g.>.9.9.4.:.%.P L ( f.Y. X|..X.X`.`.l.4.*.~ % / ' Y P.P.6.) 4 <.5 , ",
", # <.XX[.L.L.I.4.f.k.' 6 6 8 <.:.>.>.-.%.%._ - ^ ' _ - ^ ' ( I ^ :.3.:.( P P ( f.Y.Y.L.g.r.e.L.4.,.;./ $ K ' ` P.U.7.4 4 <.4 = ",
"- + w.%X/.g.[.l.;.2.2._ 4 5 5 &.I I I %.e.g.=.5 ^ *.( % - ^ P ~ ^ *.*.( P P P P f. XY.e.4.:.2.9.2.~ ~ ' ) & Y 2.j.P.6.` 7 6., o ",
"+ # K.:X].#X;XL.4.' ~ ^ - # 4 6 e.L.P.L.'.#X/./.l.l.<.&.^ _ ~ ~ ; ~ 4 %.( ( ;.P -.0.r.r.f.8.2.;.2.K K 2.2.~ ~ _ 5.H.5.) 7 ,., @ ",
"& P '.7X.X=X*X0.3.( - ( ~ # ,.e.#X8XyXwX&X/.].{.{.`.t.=.,.' ) 1 4 ^ ^ L.~.~.~.%.* $.( ( ;.' / ( / 2.K.f.&.5 &.&.<.2.../ , ..1 1 ",
"& / Y.=X/.r.!.-.-.I + ( ^ ~ I.%XtX9XtXtX;X{.`.!.`.(.t.1.<.,. .) _ ^ *.:X0X:X6X~.; ; ; + & % % Y J 2.P.f.^ ; &.1.,.&.~ ) ) X., ) ",
"% / f.).3.$.-.=.( ^ P %.; ^ #X7XtXtXuXtX/.!.{.+X{.`.^.9.6.<.6 6 ~ ~ %.;X;X`.6X~.5 -.-.^ ^ ~ $ ~ / % ~ ( &.8 6 = &.5 4 ' ..2.$ ~ ",
"@ Y 4 ~ _ ,.6.,._ = - $.# L.:X#XrXpXiXrX{.(.(.(.{.^.l.=.,.3.2.# - ,.~ %.2.&.3.*.^ ; _ ' ( ' / *._ ~ # ~ _ 4 4 4 5 ~ ^ ' ,.( ) # ",
"@ 1 ~ ) 5 4 ~ ^ 4 % ^ *.^ XX0X.X}.}.{.{.(.(.&X.X/.r.I.w.w.*.<.~ ^ I P * ^ -.^ ( ' ^ %.&.;.2.~ ^ ( _ ( *.&.( 4 ; ~ ~ ~ ~ ~ _ ~ 4 ",
"# , ) ..' _ ~ ~ ^ _ *.*.5 ].0X].*X}.(.`.(.`.].'./.r.w.*.3.- ; P ^ * I ; ( *.& I ( ( ;.( ( ' ~ 2.2.2.3.%.( 5 ~ 4 8.5.,.' ~ 4 4 4 ",
"o O 5 ..2.,.4 = # * ^ ; ; g.0X0X.X}.].OX&X&X&X|.[.e.*.%.L._ = P ^ :.g.0.L.).=.( ^ ( *.^ ( ,.2.[.].|./.2.I ^ 2.r.[.L.e.2.' ~ 4 4 ",
"+ - ,.2.,.,.^ ( ^ ; =.*.^ -./.]..X].|.;X|.[./.g.r.:.:.4.).;.- ; %.|.=X.X:X:X|.0.^ %.I ^ 8.L.K.;X>X5X.Xf.%.^ 2.r.e.e.w.5.,.` 7 1 ",
"X O 2.5 - %.*.r./.~.&X|.~.$.$.; /./.'.|.L.9.:.=.2.=.3.:.4.I I ( :.5X-X:X:X-X>Xg.3.%.I %.;XqX X#X&X&X.X).>.I ; ^ &.*.2.2.,.' ) 1 ",
"# ~ l.2.e.5XqXpX[.].5X>X:X!.9.$.( ( 3.r.8.2.4.e.e.4.0.( ^ $.e.g.r..X=X.X&X.X'.g.0.:.^ :.wXiX#X|.&X_._._.g.=.I ^ _ ( _ ' ..' 4 , ",
"O # ,._ I.uXyXeX|.].-X&X:X_.g.=.^ % _ ,.( ( ;.3.%.I ( = I 2. XY.).).=X&X=X=X0.r.0.:.( >.9XyX#X=X.Xq.-.>.>.-.I I - - 4 5 ` ` ) 1 ",
"o 4 4 L.:X7XuXeX].{.-X,X&X`.^.%.4 - P ~ ~ P P ~ P P ; ^ *.e.'.#X|.=X`._.:X`.9.r.r.I =.3.).;Xe.3.-.>.>.q.$.-.^ ( e.8.' # ` ,., E ",
"# 5 _ oX7X;X0X:X-X.X-X>X|.[.r.*.;.' ~ / P P ~ ^ ~ P - ~ 2.). X X9.9.-.>.]./.:.:.3.; $.^ 2.L.2.r.q.~.~.9.; ; *.r.'.U.8.1 _  .@ , ",
"X   # U.7X=X>X;X,X.X.X&X].g.e.*.~ ^ ' :.8.8.e.K.8.*.P ~ 4.g.r.3.=.9.2.>.r.e.2.e.3.$.*.I 5 &.( e.r././.3.; * 3.I.K.I.j.) ) ` @ Y ",
"2 ) ' U.:X;X:X.X*X].)./.e.e.2.%.( ^ ~ ( ( :.2.8.e.,.^ ^ 2.e.5.&.*.9.3.=.=.%.&.e.3.,.4.%.^ ^ ~ &.2.*.3._ %.^ ,.,.,.2.5.) ) ) , ) ",
"  < 1  .8.I.).r.(.).r.=.*.*.,.^ P P I ( ' ( ^ ; ( ~ 4 ^ &.6.j.k.3.w.<.<.3.3.&.*.*.&.&.' _ &._ ^ ; ; _ ~ ,.~ _ 4 _  ...) E 7 @ 1 ",
"  2 ) 6 ,.I.|./.0.!.0.$.^ _ _ ~ ; ( ;.;.;.;.*.^ _ ^ 4 4 ) _ 2.8.6.r.k.l.e.2.%.5 ,.&.) ~ _ .._ ~ 4 ~ ' _ _ ~ ~ ~ ) 4 ` ~ 4 ` 1 1 ",
"< 2 ` 1 4 ( &.$.$.-.$.6 $.4 ~ 2.#X|.Y.:.I I *.4.e.,._ _ ) 5 4 5 _ ,.e.3.^ 4 - % 6.5._ 5 ~ ) _ 4 7 ` ..,.)  .` ....1 ) 7 )  .7 4 ",
"  > 2 ~ 4 ; * ; * * : ^ %.= 4 k.=XwXiXqX).4.3.3.L.w.*.,.,.' _ ^ ^ ; - - - 5 _ - ' ,._ ~ 4 4 ~ 4 4 ~ % ' ) ,.)  .j.` ) 7 4 ` Y , ",
"  < ..4 4.0.q.-.q..X`.^ 5 ' ^ @X5X6XpXpX.X~.).).r.9.:.%.I ^ :.-.q.q.g.g.L.8.*.1 ~ X.% # 4.K.e.g.^ 3.4._ ~ ~ _ ..E.P.5.1 6 _ % 4 ",
"7 2 1 # -.g..X4X>._.;X*.5 ( ( ;X5X5XqX6X.X X).g.g.^ ; ^ ( -.).5X~.~.~.g.f.e.' , Y ) & P Y.5X|.).[.r.w.L.k.' 6 ` j.%X%X6.7 - + 5 ",
"> @ 4 8. X5X5X-X|._.>X5.^ ' / #X5X5X5X=Xg.f.g.0.*.( ^ I %.L.5X5X=X.X=X=X#X'.5./ ~ ) ~ ( oX:X|.).:Xw.*.4.&.% 6 X.7 j.j. .5 ,.^ 5 ",
"2 2 % 2.q.5X.X.X5Xr.'.1.- *.( '..X=X=X Xf.q.g.g.^ %.%.I *. X:X#X6X=X_./.I.P.8.2.Y ' ' *.8.f.9.0.9.4.'.'.2._ ..4 j.j.X., _ j.&.4 ",
"2 ) , - - 0.g.g./.5 <.4 # ' _ K.=X=X#X X[.I.K.l.*.^ - ~ %.f.#X:X_.~.~.g.K.8.' ~ 1 ' 2._ ( _ %.=.( 3.#X'.2.,.5.1 8...X.6 ) .._ ~ ",
"o  ..._ P -.$.; ^ = &._ 4 ^ ( 4.g.L.f.g.|.'.8.' 1.^ ^ 4 ^ 4.Y.Y.g.g.q.g.L.2._ % ....' ' ^ ^ ^ I *.&.*.<._ _ ,...) $ ) _ ) *.' _ ",
"2  .X.~ / ( %.^ ; ^ &.1.' _ ~ ( %.=.%.*.e.8._ 5 ~ ..,.~ 4 2.2.( r.=.I P 4 4 _ ' 2._ ( ` ^ ^ ( ; ^ 5 _ <.5.,._ _ X.~ ..,._ 5._ , ",
"2 <  .^ ;.P ( ( ^ 1.4 ) 2.%.' % # %.( ~ ( ) ~ &...4 _ ..~ 1 ~ ( ~ ; ^ ( ( ~ 4 Y 1 1 ~ ^ ; ^ &.*.%.,._ - 4 % 4 _ 5 ,  .6 , ..` # ",
"<  ...) ~ P - / ^ _ &.1...' ' ( ;.P ^ ( _ ~ _ )  .) ..5.2.~ $ ( - ~ ( &.' ) ~ ) 4 1 ' *.( 5 = *.k.k.,.,._ ,.4 ~ ) ....) 7 ) ) 1 ",
"2 X.X.) / ;.e.'...6 , , _ ..^ ~ & ~ ^ ~ _ _ 7 , _ ) ~ ) ) ' ~ % _ ( ' ,._ ~ 4 % 4 _ 4.5.e.I.6._ _ 5._ 4 5 6.2.2.6.2.X.` _ ) 1 1 ",
"<  .X...' ' / ' j.5.7 7 ) _ ~ ~ ^ K.L.2.k.k.,.4  ._ ) 4 ) 2.6.2._ ~ , , 4 ) ) 5 5 X.P.k.L.@Xk.^ 5 ,._ 4 ) j.j.k.I.6.X.....2 2 2 ",
"2  .` / ' } 5.K.j.j.<. .) ~ ( ;.k.:X#XL.oXoX6.X.,._ _ ,.' ..8.E.E.k.,.) 7 ) 6 1 _ 5.U.I.k.w.,.,.j.5.....' ,.,.6.j.,.' ..` 1 2 2 ",
"< 2 ) E ..2.j.P. .X.5. .1 ~ ' 8.e.'.L.e.l.k.<.5.,..._ _ ~ 4 _ 5.P.j.X.1 4 ) 6 1 ( 6.E.k.2.,._ ,.j.j.X._ ' 5 4 _ ' ....) 7 7 2 2 ",
"@ 2 ) ` ' ` Y E ) 7 7 ) ) ) ( *.;.9.:.*.j.6.<.6.1.X._ 4 4 ..( 1 1 ) 7 4 ` X...) 4 ,.6.,._ 6.' 4 ) X.X.1 ~ _ _ ~ ^ _ ..) 1 2 2 < ",
"2 E 2 @ 1 ` ` X. . .7 7 E ~ ~ ~ %.*.%.&.1.<.<.,._  .6 4 ~ 3.*.1  .5.5.X...X._ 6 , ~ ' 1 5 ,._ - 1 ) ..% _ _ &.&._ ) _ 1 2 2 2 < ",
"> 2 1 , ) ~ $ @ 2 2 E ) , % - P P ; ^ 5 4 6 &.= _ 5 4 5 ^ ~ - 4 2  . .7 , 7 ` ) ,.4 ~ 5 4 1 , _ ` 1 2 , ' # 4 ,._ 4 , 1 2 2 2 2 "
};
