/* XPM */
static char *xpm_______________Set_Gem_White_9090_90x90_SET_SANT_AGOSTINO1660057205[] = {
/* columns rows colors chars-per-pixel */
"32 32 182 2 ",
"   c #B1A9A6",
".  c #B2AAA8",
"X  c #B5ADAA",
"o  c #B7AFAC",
"O  c #B7B0A8",
"+  c #BAB3AD",
"@  c #B9B1AE",
"#  c #BAB2AF",
"$  c #BBB4AE",
"%  c #BCB5AF",
"&  c #BEB7AF",
"*  c #BAB2B0",
"=  c #BCB4B1",
"-  c #BEB7B1",
";  c #BDB5B2",
":  c #BEB6B3",
">  c #BEB6B4",
",  c #BFB7B4",
"<  c #BFB7B5",
"1  c #BFB8B2",
"2  c #C0B9B1",
"3  c #C2BBB3",
"4  c #C0B8B5",
"5  c #C1BAB4",
"6  c #C2BBB5",
"7  c #C0B8B6",
"8  c #C1B9B6",
"9  c #C1B9B7",
"0  c #C2BAB7",
"q  c #C3BCB4",
"w  c #C4BDB5",
"e  c #C4BDB7",
"r  c #C3BBB8",
"t  c #C4BCB9",
"y  c #C5BEB8",
"u  c #C6BFB9",
"i  c #C5BDBA",
"p  c #C5BDBB",
"a  c #C6BEBB",
"s  c #C7BFBC",
"d  c #C7C0B8",
"f  c #C7C0BA",
"g  c #C8C1B9",
"h  c #C9C2BA",
"j  c #CAC3BB",
"k  c #C8C0BD",
"l  c #C9C2BC",
"z  c #C8C0BE",
"x  c #C9C1BE",
"c  c #C9C1BF",
"v  c #CAC2BF",
"b  c #CBC4BE",
"n  c #CCC5BF",
"m  c #CDC6BE",
"M  c #CAC2C0",
"N  c #CBC3C0",
"B  c #CBC3C1",
"V  c #CCC4C1",
"C  c #CDC6C0",
"Z  c #CEC7C1",
"A  c #CCC4C2",
"S  c #CDC5C2",
"D  c #CDC5C3",
"F  c #CEC6C3",
"G  c #CEC6C4",
"H  c #CFC7C4",
"J  c #CFC8C0",
"K  c #CFC8C2",
"L  c #D0C9C1",
"P  c #D0C9C3",
"I  c #D1CAC2",
"U  c #D2CBC3",
"Y  c #D0C8C5",
"T  c #D1CAC4",
"R  c #D2CBC5",
"E  c #D0C8C6",
"W  c #D1C9C6",
"Q  c #D1C9C7",
"!  c #D2CAC7",
"~  c #D3CCC4",
"^  c #D3CCC6",
"/  c #D4CDC5",
"(  c #D4CDC7",
")  c #D6CFC7",
"_  c #D2CAC8",
"`  c #D3CBC8",
"'  c #D3CBC9",
"]  c #D4CCC9",
"[  c #D5CEC8",
"{  c #D6CFC9",
"}  c #D4CCCA",
"|  c #D5CDCA",
" . c #D5CDCB",
".. c #D6CECB",
"X. c #D6CECC",
"o. c #D7CFCC",
"O. c #D7CFCD",
"+. c #D7D0CA",
"@. c #D8D1C9",
"#. c #DAD3CB",
"$. c #D8D0CD",
"%. c #D9D2CC",
"&. c #DAD3CD",
"*. c #D8D0CE",
"=. c #D9D1CE",
"-. c #D9D1CF",
";. c #DAD2CF",
":. c #DBD4CC",
">. c #DBD4CE",
",. c #DCD5CD",
"<. c #DCD5CF",
"1. c #DDD6CE",
"2. c #DAD2D0",
"3. c #DBD3D0",
"4. c #DCD4D1",
"5. c #DDD6D0",
"6. c #DED7D1",
"7. c #DCD4D2",
"8. c #DDD5D2",
"9. c #DDD5D3",
"0. c #DED6D3",
"q. c #DED6D4",
"w. c #DFD7D4",
"e. c #DFD7D5",
"r. c #DFD8D0",
"t. c #DFD8D2",
"y. c #E0D9D3",
"u. c #E1DAD2",
"i. c #E2DBD3",
"p. c #E0D8D5",
"a. c #E1DAD4",
"s. c #E2DBD5",
"d. c #E0D8D6",
"f. c #E1D9D6",
"g. c #E1D9D7",
"h. c #E2DAD7",
"j. c #E3DCD4",
"k. c #E3DCD6",
"l. c #E4DDD5",
"z. c #E4DDD7",
"x. c #E5DED6",
"c. c #E6DFD7",
"v. c #E2DAD8",
"b. c #E3DBD8",
"n. c #E4DCD9",
"m. c #E5DED8",
"M. c #E6DFD9",
"N. c #E4DCDA",
"B. c #E5DDDA",
"V. c #E5DDDB",
"C. c #E6DEDB",
"Z. c #E7DFDC",
"A. c #E7E0D8",
"S. c #E7E0DA",
"D. c #E8E1DB",
"F. c #E8E0DD",
"G. c #EAE3DD",
"H. c #E9E1DE",
"J. c #E9E1DF",
"K. c #EAE2DF",
"L. c #EBE3E0",
"P. c #EBE3E1",
"I. c #ECE4E1",
"U. c #EEE7E1",
"Y. c #EDE5E2",
"T. c #EEE6E3",
"R. c #EEE6E4",
"E. c #EFE7E4",
"W. c #EFE8E2",
"Q. c #F0E8E5",
"!. c #F1E9E6",
"~. c #F2EAE7",
"^. c #F3EBE8",
"/. c #F4ECE9",
"(. c #F5EDEA",
"). c #F6EEEB",
"_. c #F7EFEC",
"`. c #F8F0ED",
"'. c #F9F1EE",
"]. c #FBF3F0",
"[. c #FDF5F2",
"{. c #FEF6F3",
/* pixels */
"b.f.n.0.T.Z.n.| n.0.| ;.Y 0.' t.| y./ / 4.b j.m 4.] ] w.' o.A *.",
"| 0.3.0.H.0.n.S 4.N Y S i ;.f >.b x.m d K e 4.+ 3.f H ] N ' > 3.",
"f.f.H.w.H.n.Z.0.f.0.;.w.;.b.;.j.t.i.A./ >.t.S.+.w.4.4.b.*.w.} e.",
"n.| T.Y o.f.Y 3.S 4.k ;.Y S Y v +.O @.g ~ +.e >.> | e ' M M _ < ",
"L.n.Q.f.Z.f.b.b.f.f.;.0.| w.;.>.D./ x.y.G.r.+.i.*.w.4.e.*.e.7.9.",
"Y Z.| b.L.S H.Y H.S f.N i H.v S.1 ) 2 j ~ + >.+ 3.X H M < o.. e.",
"0.n.f.H.Q.0.T.;.f.Y f.Y v F.S y.m x.m / t.m W.K b.N 9.3._ N.A P.",
"E.| Q.| f.H.;.n.Y Z.S b.;.| 0.b y.U >.m / Y K | < b.H *._ *.e.M ",
"E.S E.w.Z.n.Y H.Y n.S w.| Y ;.f r.& A.3 ] +.f >.e 3.N H N *.o.p ",
"b./.L.H.Q.f./.0.T.0.Z.w.o.H.| S.+.r.,.<.j.+.j.K 4.s w.w.*.E.A P.",
"S L.o.3.b.S H.i 3.v ;.S i 0.e 0.1 r.3 U K f >.= } o H o._ e.> Z.",
"/.n./.Q.`.H.n.T.0.T.0.T.f.f.n.t.r.A.A.>.<.e.j.t.3.F.3.L.e.e.N.w.",
"L.v Z.0.n.0.S n.s H.N 0.Y H 0.f 6.b <.d ~ K K ~ < w.r ' B < } * ",
"T.H.Q.H.Q.T.E.T.H.T.T.n.0.Q.n.x.A.r.i.#.W.K S.>.w.w.4.P.9.7.} 9.",
"S w.0.| w.;.H.| L.S 0.Y S L.i f.h #.h J >.+ >.e 4.k o.o.B *.< e.",
";.w.L.f.L.T.Q.b./.Y 0.f.w.Q.S Q.~ A.+.>.*.~ w.N b.o.e.*.H e.E R.",
"Q.0.H.n.Q.T.H./.0.Q.f.f.;.f.n.| 4.b A.] b.Y *.b.*.+.Y 4.| 4.N N ",
"T.;.Q.0.H.Q.b.Q.;.H.Y n.0.o.f.| F.N 9.H ' ] H P.N 4.S *.N H S < ",
"n.H./.H.Q.^.Q.H.Q.H.;.T.H.H.n.T.9.w.V.V.w.F.w.b.4.w.;.w.| w.;.w.",
"N 0.| f.H.Y n.N T.| ;.0.;.H.Y n.@ 9.+.2.4.*.b.e w.i Y | S 4.e F.",
"T.T.Q.Q.`.H./.T.Q.H.H.T.H.`.n.H.w.P.E.w.P.b./.w.T.b.0.F.f.n.*.f.",
"n.Y H.| 0.f.| H.i f.i 0.;.Y 3.9 F.e b.k 4.H N 4.= 4.= ' H s ]   ",
"Q.H.`.H.Q.Q.Q.Q.f.T.f.E.H.T.L.n.^.b.^.L.).F.b.P.| F.| L.b.f.n.*.",
"i L.| f.H.S Q.s H.S Z.Y v Q.S E.k P.k 4.4.H E.N F.i +.4.H *.= F.",
"0.H.n.n.T.0.H.;.H.;.f.f.0.H.0.Q.3.T.n.3.f.0.E.o.T.Y H.;.;.b.H F.",
"Q.| T.0.n.H.;.T.Y T.o.H.0.;.H.| T.' E.0.n.n.' n.k b.S w.Y n.w.H ",
"Q.;.T.Y ;.f.Y n.i H.Y n.;.Y f.N b.s n.o.0.3.s 3.e b.s w.Y w.3.r ",
"H.{.Q.H.Q.H.{.f.Q.b.Q.Q.b.Q.0.`.f.Q.Z.b.L.0.^.3.E.| n.w.b.Z.] n.",
"9 n.Y ;.n.Y /.S Z.N n.| S n.i T.i Z.S S o.s L.9 b.= ;.H Y o.> F.",
"Q.T.E.^.{.H./.Q.E./.Q.T.f./.H.H.Z.H.H.n.L.f.E.n.L.E.b.^.w.L.f.T.",
"Q.| H.0.b.;.Y Z.Y Z.H 0.| | 3.v f.s 0.Y ;.' N 3.r b.= o.e k H @ ",
"T.f.Q.f.H.H.F.Q.H.H.| E.L.f.f.f.^.0.H.f.n.0.3.Z.o.L.| b.L.4.E.| "
};
