/* XPM */
static char *d1a4c66d267f4babcade262fe7e008ecQfUQcQYtgPb2VIJM[] = {
/* columns rows colors chars-per-pixel */
"32 32 120 2 ",
"   c #14121D",
".  c #151422",
"X  c #161728",
"o  c #16192D",
"O  c #171B32",
"+  c #181D35",
"@  c #191F3A",
"#  c #1C2036",
"$  c #1A213D",
"%  c #1B2344",
"&  c #1C264A",
"*  c #1C294D",
"=  c #1D2B53",
"-  c #1F2F5A",
";  c #1C3054",
":  c #1F315B",
">  c #203253",
",  c #20335D",
"<  c #23395F",
"1  c #1F3561",
"2  c #1F3966",
"3  c #1E3F68",
"4  c #213363",
"5  c #213B61",
"6  c #22366A",
"7  c #233B6C",
"8  c #243C73",
"9  c #253F7A",
"0  c #1F4471",
"q  c #24456E",
"w  c #29476B",
"e  c #234374",
"r  c #244E74",
"t  c #25427C",
"y  c #244B7D",
"u  c #2A4979",
"i  c #2D517B",
"p  c #2A597D",
"a  c #274483",
"s  c #264D83",
"d  c #2A4A86",
"f  c #294A8D",
"g  c #215382",
"h  c #295A83",
"j  c #245A8A",
"k  c #305782",
"l  c #294D91",
"z  c #2B5595",
"x  c #2C5893",
"c  c #2B579C",
"v  c #2E599C",
"b  c #2E688F",
"n  c #326B8F",
"m  c #2B6794",
"M  c #25659B",
"N  c #2B609B",
"B  c #2E759F",
"V  c #2B5DA1",
"C  c #2C6AA3",
"Z  c #2B6AAD",
"A  c #326AA8",
"S  c #2F72A3",
"D  c #2D75AE",
"F  c #3475A0",
"G  c #3876A6",
"H  c #317AA6",
"J  c #3C7FA7",
"K  c #337CAC",
"L  c #2C7CB3",
"P  c #3677B0",
"I  c #307DBC",
"U  c #3582AF",
"Y  c #3D8DB1",
"T  c #3384BD",
"R  c #3881B8",
"E  c #3F94BD",
"W  c #3C98BD",
"Q  c #4189B6",
"!  c #3C91C2",
"~  c #3E9CC2",
"^  c #3DA0CC",
"/  c #4295C1",
"(  c #429DCA",
")  c #43A2C6",
"_  c #4CA5CE",
"`  c #45A4D2",
"'  c #42ACD6",
"]  c #41A9D9",
"[  c #4CAED8",
"{  c #4CB2D3",
"}  c #4CBBDB",
"|  c #52BBDC",
" . c #67B7D6",
".. c #66B6D8",
"X. c #66BCDD",
"o. c #53C1DD",
"O. c #4EC4E1",
"+. c #4AC2E3",
"@. c #51C0E2",
"#. c #5AC3E0",
"$. c #5AC3E1",
"%. c #52CDE6",
"&. c #54CFE6",
"*. c #64C6E1",
"=. c #60CAE5",
"-. c #63D1E6",
";. c #73DEE8",
":. c #71DFEA",
">. c #78DFE9",
",. c #7EE5EC",
"<. c #7EE8EB",
"1. c #7EEDEB",
"2. c #94CAE5",
"3. c #82E0E9",
"4. c #83E4EB",
"5. c #A8F2F0",
"6. c #B4F4F3",
"7. c #CAEFF2",
"8. c #DEE9F3",
"9. c #D6FCF7",
/* pixels */
"                                                                ",
"                                                                ",
"                                                                ",
"                                                                ",
"                                                                ",
"                                          .       .             ",
"    .             .                     .   . . X X   .         ",
"                    . . . X X X   X o o O O O o O O O O o X     ",
"            . . X o o o O O + @ @ @ @ @ + + + @ $ $ $ % $ + o   ",
"  .   . . X o o O O O @ $ @ % % % & % $ % & = = = & * * & & + X ",
"      . X o + $ + @ % * = = = = * % $ & & = - 6 8 9 a a 9 4 % @ ",
"    . o + + % $ @ = 4 4 4 = = - - - 6 8 8 t f c c c l f t * O % ",
". . O + $ % @ $ - , = = - 4 6 a a l V A H R ! ~ Q Q G q - % + + ",
". O # % & @ + & * = 4 6 a f V Z T ` | | } +.%.%.o.U w > > % = + ",
"o $ & % @ + + % = 6 9 f V I ` $.,.4.4.=.o.o.o.^ U 2 * : & q * O ",
"+ % % & $ + % = 6 a V ! ] =.,.5.9.6.>.*.} { W p ; % ; : 1 ; + O ",
"@ % = & @ % - 8 l ! ' @.:.4.4.7.8.2.} } Y B q $ # & , s 4 % O X ",
"% % = @ % 4 t C ^ } | $.X._ _  ...! H m y < & # > 0 e 6 * + o . ",
"% % & % 6 x T ~ ^ ^ [ ( ( ^ ) ! m 0 1 4 > $ % < q 6 4 % + O X   ",
"O & = = 9 F U b T I F n p r : 0 2 = * & & 7 7 9 6 : % + O X .   ",
"@ % 6 1 e h j g j M j j 0 1 - - * * : = 8 9 4 - & @ O O o .   . ",
"% - 9 8 N K D m 0 g 0 g 0 - $ @ - : 4 6 6 * % + O O O o .       ",
"& 4 - 1 4 7 7 7 8 1 1 8 1 & = 1 6 1 - * $ @ @ + O o X           ",
"O $ & * w h i 1 : = % = = = = * % % @ @ + + + X X . .           ",
". X X o $ * % O o O @ % % @ + + @ + + O O o                     ",
"X X O @ @ + $ + o + @ + O O O O O O O o X                       ",
"@ O O o o + + o o O o X o o o o X X .                           ",
"X X o O o o . .         .   .                                   ",
". o O X                                                         ",
"                                                                ",
"    .                                                           ",
"                                                                "
};
